<svg xmlns="http://www.w3.org/2000/svg" width="150" height="55" viewBox="0 0 719 236" version="1.1"><path d="M 92 9.506 C 92 9.784, 103.550 39.822, 117.667 76.256 C 131.783 112.690, 148.818 156.675, 155.522 174 L 167.711 205.500 193.469 205.767 C 213.933 205.979, 219.128 205.774, 218.747 204.767 C 218.483 204.070, 213.967 191.575, 208.710 177 C 186.940 116.632, 149.877 14.308, 148.855 11.750 C 147.757 9, 147.757 9, 119.879 9 C 104.545 9, 92 9.228, 92 9.506 M 372.500 17.890 C 370.850 18.249, 369.950 18.811, 370.500 19.140 C 371.050 19.468, 373.075 19.155, 375 18.444 C 378.711 17.074, 377.491 16.803, 372.500 17.890 M 46.418 135.740 C 51.475 149.653, 72.469 202, 72.991 202 C 73.379 202, 74.552 200.088, 75.598 197.750 C 78.227 191.875, 89.299 181.046, 96.131 177.667 C 111.658 169.988, 128.058 170.081, 143.322 177.934 C 149.143 180.929, 149.143 180.929, 148.488 177.945 C 148.128 176.304, 144.794 165.858, 141.080 154.731 L 134.328 134.500 90.053 134.240 C 48.148 133.993, 45.812 134.073, 46.418 135.740" stroke="none" fill="#1389f8" fill-rule="evenodd"/><path d="M 261.500 11.600 C 238.564 14.808, 227 23.040, 227 36.158 C 227 42.535, 229.652 50.735, 233.593 56.542 C 236.098 60.234, 236.098 60.234, 234.091 72.867 C 228.271 109.498, 226.336 136.993, 227.948 160.170 C 229.631 184.372, 233.265 191.899, 246.231 198.033 C 251.557 200.552, 253.706 200.999, 260.520 200.999 C 279.446 201.001, 296.341 192.723, 313.242 175.166 C 336.407 151.104, 350.217 116.405, 350.322 82 C 350.389 60.004, 344.951 45.904, 331.025 31.972 C 316.326 17.266, 302.832 12.002, 278.500 11.481 C 270.800 11.316, 263.150 11.370, 261.500 11.600 M 408 13.055 C 392.656 13.986, 384.980 15.269, 374.111 18.721 C 367.473 20.828, 364.666 22.355, 360.668 26.031 C 355.752 30.552, 355.605 30.850, 355.217 37.088 C 354.777 44.172, 357.468 53.303, 360.914 56.422 C 362.626 57.972, 363.099 57.986, 366.452 56.585 C 369.863 55.159, 370.082 55.173, 369.606 56.776 C 367.213 64.831, 363.700 81.145, 361.589 94 C 357.952 116.154, 356.803 134.993, 357.532 160.500 C 358.209 184.165, 359.550 191.494, 364.254 197.245 C 366.500 199.991, 366.500 199.991, 376.500 197.898 C 385.476 196.019, 388.803 195.856, 409 196.311 C 431.782 196.823, 440.502 197.764, 449.430 200.674 C 454.360 202.280, 454.360 202.280, 457.082 199.235 C 461.149 194.683, 463.297 186.107, 462.795 176.423 C 462.351 167.859, 460.239 162.801, 456.030 160.225 C 452.292 157.937, 438.456 156.808, 418.426 157.157 C 398.773 157.500, 398.773 157.500, 399.173 141.797 C 399.393 133.160, 399.903 125.764, 400.306 125.361 C 401.141 124.525, 425.451 124.244, 431.500 125 C 435.442 125.493, 435.535 125.429, 437.907 120.644 C 439.793 116.840, 440.416 113.675, 440.784 106.042 C 441.327 94.766, 440.297 90.617, 435.912 86.415 C 432.910 83.537, 432.700 83.496, 419.533 83.154 C 406.195 82.808, 406.195 82.808, 409.561 70.154 C 412.927 57.500, 412.927 57.500, 410.861 54.652 C 408.795 51.803, 408.795 51.803, 417.647 52.444 C 436.748 53.826, 448.920 55.225, 458.467 57.134 C 468.078 59.055, 468.483 59.062, 469.797 57.313 C 475.540 49.670, 478.171 38.088, 476.005 29.987 C 474.314 23.668, 467.895 17.693, 460.480 15.537 C 457.355 14.629, 448.881 13.477, 441.649 12.978 C 427.064 11.971, 425.819 11.974, 408 13.055 M 521.500 14.284 C 492.143 17.556, 480.653 24.699, 480.787 39.594 C 480.835 44.902, 483.645 52.845, 486.650 56.166 C 487.754 57.386, 489.087 57.733, 491.112 57.328 C 493.761 56.798, 494 56.988, 494 59.632 C 494 61.216, 493.544 64.085, 492.987 66.007 C 490.781 73.615, 486.947 94.225, 485.270 107.500 C 483.874 118.543, 483.533 128.048, 483.658 152.500 C 483.804 181.276, 483.965 183.895, 485.900 189 C 487.047 192.025, 489.001 195.736, 490.243 197.247 C 492.500 199.994, 492.500 199.994, 502 198.010 C 518.849 194.492, 554.092 195.506, 572.437 200.038 C 580.373 201.998, 580.373 201.998, 582.654 199.855 C 586.369 196.365, 588.489 188.615, 588.494 178.500 C 588.500 168.196, 586.566 162.861, 581.961 160.480 C 576.879 157.852, 565.293 156.814, 544.920 157.161 C 524.999 157.500, 524.999 157.500, 525.015 142.500 C 525.023 134.250, 525.409 126.904, 525.871 126.175 C 527.005 124.386, 547.668 123.424, 555 124.818 C 560.084 125.785, 560.625 125.704, 562.149 123.740 C 564.641 120.531, 566.187 114.382, 566.737 105.500 C 567.343 95.700, 565.993 90.327, 561.952 86.452 C 558.872 83.500, 558.872 83.500, 545.438 83.500 C 538.050 83.500, 532.007 83.275, 532.009 83 C 532.011 82.725, 533.411 77.325, 535.121 71 C 538.658 57.912, 538.764 56.501, 536.399 53.888 C 534.732 52.046, 534.922 52.014, 544.095 52.563 C 559.555 53.488, 581.103 56.001, 587.373 57.611 C 593.094 59.079, 593.306 59.061, 595.612 56.894 C 601.494 51.369, 604.226 34.493, 600.508 26.658 C 596.441 18.088, 588.014 14.541, 567.841 12.907 C 552.737 11.684, 541.945 12.005, 521.500 14.284 M 631.655 15.398 C 623.302 18.508, 622.270 20.699, 616.532 47.500 C 609.821 78.849, 606.112 117.372, 607.533 140.963 C 608.315 153.940, 609.851 160.148, 613.149 163.658 C 615.421 166.077, 615.421 166.077, 613.085 166.688 C 608.092 167.994, 602.629 171.697, 600.788 175.025 C 597.427 181.098, 600.001 193.068, 606.500 201.588 C 608.929 204.774, 608.956 204.781, 612.999 203.388 C 630.408 197.391, 674.331 197.018, 695.213 202.691 C 698.355 203.544, 701.640 203.968, 702.514 203.633 C 707.154 201.853, 710.622 182.619, 708.026 173.060 C 706.360 166.925, 701.689 162.563, 694.430 160.364 C 689.640 158.914, 685.100 158.581, 670.820 158.633 C 650.376 158.708, 652.820 160.382, 650.923 145 C 647.568 117.805, 653.543 65.452, 663.089 38.409 C 666.794 27.910, 666.757 26.125, 662.750 22.247 C 655.685 15.411, 640.566 12.080, 631.655 15.398 M 69.034 72.751 C 58.968 100.663, 50.520 124.063, 50.260 124.750 C 49.889 125.729, 55.070 125.999, 74.143 125.994 C 98.500 125.989, 98.500 125.989, 105.360 105.744 C 112.220 85.500, 112.220 85.500, 100.036 54.009 C 93.334 36.689, 87.735 22.402, 87.593 22.260 C 87.451 22.118, 79.099 44.839, 69.034 72.751 M 274.500 49.759 C 280.443 53.556, 280.434 53.502, 277.621 69.211 C 272.934 95.385, 271 117.015, 271 143.256 C 271 160.113, 271 160.113, 274.129 158.307 C 293.445 147.154, 308.098 114.975, 308.192 83.500 C 308.244 66.292, 304.092 57.634, 292.857 51.519 C 288.600 49.202, 286.018 48.567, 279.538 48.244 C 271.500 47.842, 271.500 47.842, 274.500 49.759 M 31.266 177.194 C 25.649 192.700, 21.201 205.534, 21.380 205.714 C 21.560 205.893, 31.388 205.918, 43.221 205.770 L 64.735 205.500 53.676 177.250 C 47.593 161.713, 42.360 149, 42.047 149 C 41.734 149, 36.882 161.687, 31.266 177.194" stroke="none" fill="#fbfbfb" fill-rule="evenodd"/></svg>